<svg xmlns="http://www.w3.org/2000/svg" viewBox="0 0 590.91 124.78"><defs><style>.a,.b{fill:#fff;}.b{fill-rule:evenodd;}</style></defs><path class="a" d="M217.31,124l8.63-19.89h.21L234.78,124h-4.36l-5.52-14,2.73-1.87L221,124Zm5.9-6.92H229l1.33,3.18H222ZM259,104.86a10.16,10.16,0,0,1,3.2.47,6.17,6.17,0,0,1,2.34,1.3,5.39,5.39,0,0,1,1.46,2,6.73,6.73,0,0,1,.49,2.65,7.92,7.92,0,0,1-.36,2.34,5.82,5.82,0,0,1-1.15,2.13,5.57,5.57,0,0,1-2.08,1.56,8,8,0,0,1-3.22.58h-2.71V124h-3.77V104.86Zm.65,9.42a3.19,3.19,0,0,0,1.43-.29,2.32,2.32,0,0,0,.89-.73,2.61,2.61,0,0,0,.46-.91,2.86,2.86,0,0,0,.16-.91,4.37,4.37,0,0,0-.1-.78,3.08,3.08,0,0,0-.37-1,2.36,2.36,0,0,0-.88-.83,3.11,3.11,0,0,0-1.56-.34h-2.71v5.78Zm3.54,2.34,4.73,7.38H263.5l-4.84-7.28Zm23.44-11.76h13v3.64h-9.28v4.09h8.21v3.64h-8.21v4.13H300V124H286.6Zm50,19.92-14.51-13.1,1.12.62.08,11.7h-3.83V104.11h.16l14.2,13-.84-.36L333,104.86h3.79v19.92Zm18.47-.78,8.63-19.89H364L372.59,124h-4.36l-5.52-14,2.73-1.87L358.84,124Zm5.9-6.92h5.75l1.33,3.18h-8.25Z"/><rect class="a" x="326.44" y="70.27" width="5" height="5" transform="translate(173.51 371.66) rotate(-75)"/><rect class="a" x="331.27" y="71.56" width="5" height="5" transform="translate(175.84 377.29) rotate(-75)"/><rect class="a" x="332.56" y="66.73" width="5" height="5" transform="translate(181.47 374.96) rotate(-75)"/><rect class="a" x="343" y="56" width="5" height="5" transform="translate(17.04 180.59) rotate(-30)"/><rect class="a" x="358" y="26" width="5" height="5" transform="translate(239.67 369.34) rotate(-75)"/><rect class="a" x="428.35" y="40.09" width="5" height="5" transform="translate(3.66 112.96) rotate(-15)"/><rect class="a" x="429.65" y="44.91" width="5" height="5" transform="translate(2.45 113.46) rotate(-15)"/><rect class="a" x="391" y="66" width="5" height="5" transform="translate(225.49 430.86) rotate(-75)"/><rect class="a" x="419" y="76" width="5" height="5" transform="translate(67.95 321.04) rotate(-45)"/><rect class="a" x="470.92" y="43.92" width="5" height="5" transform="translate(40.22 242.93) rotate(-30)"/><rect class="a" x="477.92" y="53.42" width="5" height="5" transform="translate(36.41 247.7) rotate(-30)"/><rect class="a" x="482.25" y="50.92" width="5" height="5" transform="translate(38.24 249.53) rotate(-30)"/><rect class="a" x="502" y="72" width="5" height="5"/><rect class="a" x="500" y="43" width="5" height="5"/><rect class="a" x="546.33" y="41.07" width="5" height="5" transform="matrix(0.32, -0.95, 0.95, 0.32, 331.94, 549.6)"/><rect class="a" x="552.67" y="37.93" width="5" height="5" transform="matrix(0.32, -0.95, 0.95, 0.32, 339.22, 553.47)"/><rect class="a" x="566.73" y="42.56" width="5" height="5" transform="translate(7.73 148.86) rotate(-15)"/><rect class="a" x="565.44" y="37.73" width="5" height="5" transform="translate(8.94 148.36) rotate(-15)"/><rect class="a" x="570.27" y="36.44" width="5" height="5" transform="translate(9.44 149.57) rotate(-15)"/><rect class="a" x="578.56" y="31.56" width="5" height="5" transform="translate(397.77 586.51) rotate(-75)"/><rect class="a" x="581" y="56" width="5" height="5" transform="translate(375.97 606.98) rotate(-75)"/><rect class="a" x="547" y="74" width="5" height="5"/><rect class="a" x="585" y="77" width="5" height="5" transform="translate(38.96 304.4) rotate(-30)"/><path class="b" d="M127.78,73.23,159.41,0h.77L191.8,73.23h-16l-5.41-13.78H147.12l-5.71,13.78Zm31.3-42.64,6.73,17.18H152ZM35.25,16.18a51.7,51.7,0,0,1,8.19,3.64L48.68,9.19A47.59,47.59,0,0,0,39.16,4.4q-5.25-2-13.72-2A26.14,26.14,0,0,0,14,5.36a19.35,19.35,0,0,0-7.71,7.08A20.47,20.47,0,0,0,3.62,23.07a18.74,18.74,0,0,0,1.81,8.62,19.83,19.83,0,0,0,4.86,5.84,36.89,36.89,0,0,0,6.48,3.92c2.28,1.09,4.51,2,6.67,2.87a30,30,0,0,1,5,2.49A13.43,13.43,0,0,1,32.2,50a5.88,5.88,0,0,1,1.43,3.83,6.51,6.51,0,0,1-1.71,4.79,9.22,9.22,0,0,1-4.2,2.49,19.16,19.16,0,0,1-4.95.67A21.82,21.82,0,0,1,17.34,61a35.8,35.8,0,0,1-5.91-2.11A37,37,0,0,1,6.1,55.62L0,66.44a44.25,44.25,0,0,0,7.72,4.31,47.06,47.06,0,0,0,8.09,2.48A45.7,45.7,0,0,0,24,74a28.19,28.19,0,0,0,13.14-2.78,20.45,20.45,0,0,0,8.1-7.46A19,19,0,0,0,48,53.8a22.37,22.37,0,0,0-1.43-8.52,16.82,16.82,0,0,0-3.81-5.84,20.91,20.91,0,0,0-5.43-3.92,45.76,45.76,0,0,0-6-2.78Q28,31.49,24.87,30a20.58,20.58,0,0,1-5.05-3.44A6.39,6.39,0,0,1,17.91,22a6.25,6.25,0,0,1,2.57-5.46,12.07,12.07,0,0,1,7.05-1.82A23.3,23.3,0,0,1,35.25,16.18ZM116,2.78H68.78v13.4H85.17V73.23H99v-57H116ZM247,4.5a36.81,36.81,0,0,0-11.72-1.72H214V73.23h13.81V50.83H237l14.81,22.4H268L251.63,47.65A19.59,19.59,0,0,0,257.18,43a21.36,21.36,0,0,0,4.2-7.85,29.25,29.25,0,0,0,1.33-8.61,25,25,0,0,0-1.81-9.77,19.69,19.69,0,0,0-5.34-7.46A22.25,22.25,0,0,0,247,4.5Zm-4.1,31.88a11.64,11.64,0,0,1-5.24,1h-9.81V16.18h9.91a11.15,11.15,0,0,1,5.71,1.24,8.24,8.24,0,0,1,3.24,3.07A10.51,10.51,0,0,1,248,24.12a14.08,14.08,0,0,1,.38,2.88,11.31,11.31,0,0,1-.57,3.35,9.9,9.9,0,0,1-1.72,3.35A8.53,8.53,0,0,1,242.89,36.38Zm48.45-33.6h43.82v13.4h-30v16H322V42h5V37h4.16v8.57h-26V57H301V67h-5v6.23h-4.66ZM389.58,0,358,73.23H369V64h6.4l1.89-4.55H388V55h10v4.45h2.56L405,70.77V69h5v4.23h12L415,57.1V59h-5V49h1.5L390.34,0ZM410,69V64h5v5ZM396,47.77l-6.74-17.18-7.12,17.18Zm48.21-45H458V59.83h33V64h-4v5h-5v4.23H468V64h-5v5h-5V64h-5v5h-8.81Zm86.85,0H517.22V37H522v5h-4.78V73.23H564V59.83h-4V69H550V64h5V59.83H531V57h-9V52h5V47h-5V42h9ZM522,37V32h5v5Z"/></svg>